<svg xmlns="http://www.w3.org/2000/svg" viewBox="0 0 1200 760">
<defs>
  <linearGradient id="r" x1="0" y1="0" x2="1" y2="1"><stop stop-color="#e31a24"/><stop offset="1" stop-color="#7f0b14"/></linearGradient>
  <linearGradient id="k" x1="0" y1="0" x2="0" y2="1"><stop stop-color="#1f2023"/><stop offset="1" stop-color="#050506"/></linearGradient>
  <filter id="s"><feDropShadow dx="0" dy="16" stdDeviation="20" flood-opacity=".28"/></filter>
</defs>
<g opacity=".2" fill="#8b7770">
  <path d="M0 600h1200v160H0z"/><path d="M65 600V420h45v180zm80 0V370h58v230zm100 0V470h38v130zm630 0V390h55v210zm85 0V310h58v290zm95 0V440h45v160z"/>
</g>
<circle cx="720" cy="334" r="246" fill="url(#r)" opacity=".95"/>
<g fill="none" stroke="#aa111a" stroke-width="5" opacity=".65">
  <path d="M92 530 274 438 506 512 720 382 1020 470"/>
  <path d="M275 438 300 305M506 512 520 350M720 382 760 230M1020 470 1070 332"/>
</g>
<g filter="url(#s)">
  <path d="M442 667c22-172 61-338 188-388 118-46 243 27 278 388z" fill="url(#k)"/>
  <path d="M562 268c12-86 72-150 162-154 103-5 166 72 172 154-88 22-239 22-334 0z" fill="#070708"/>
  <path d="M610 232c28-18 166-23 235 0-20-111-182-119-235 0z" fill="#151517"/>
  <path d="M633 314c52-17 125-16 181 1-18 84-43 134-91 134-49 0-77-51-90-135z" fill="#b89b86"/>
  <path d="M650 321c40 18 105 18 151 0l-18 90-58 38-58-39z" fill="#09090a"/>
  <path d="M690 446h68l21 116-58 67-57-66z" fill="#bc101a"/>
  <path d="M516 650c32-120 63-192 138-225l68 70 72-70c89 30 124 109 151 225z" fill="#0d0d0f"/>
  <path d="M663 494 610 434l-42 198 110-92zm118 0 55-61 50 199-111-92z" fill="#25262a"/>
  <path d="M878 668c-4-118 24-230 103-276 86-50 167-7 185 120 8 58 2 108-10 156z" fill="#111214"/>
  <path d="M932 355c15-61 58-99 113-98 67 2 102 47 106 99-64 13-157 13-219-1z" fill="#080809"/>
  <path d="M936 391c27-14 70-17 102 0 3 72-10 113-48 113-38 0-54-42-54-113z" fill="#ad7f68"/>
  <path d="M965 502h48l21 80-46 45-43-44z" fill="#9d0e16"/>
  <path d="M273 675c7-127 21-244 112-287 79-38 156 18 168 137 5 48 1 96-10 150z" fill="#151517"/>
  <path d="M335 365c9-58 52-98 109-99 62 0 106 45 111 99-69 15-151 13-220 0z" fill="#070708"/>
  <path d="M345 399c22-12 67-14 95 1 4 62-12 103-47 103-35 0-51-41-48-104z" fill="#b68169"/>
  <path d="M369 502h43l17 74-40 44-39-43z" fill="#b50f19"/>
</g>
<g fill="#111"><circle cx="612" cy="188" r="6"/><circle cx="1065" cy="201" r="5"/><circle cx="250" cy="260" r="5"/></g>
</svg>